# This file uses centimeters as units for non-parametric coordinates.

mtllib Estrella.mtl
g default
v 0.095427 0.082828 -0.074769
v 0.095984 0.105357 -0.324042
v 0.095531 -0.059796 -0.121111
v 0.095707 -0.275829 -0.200188
v 0.095260 -0.147942 0.000213
v 0.094812 -0.275829 0.200613
v 0.094989 -0.059796 0.121536
v 0.094536 0.105357 0.324468
v 0.095092 0.082828 0.075194
v 0.095260 0.340943 0.000213
v -0.095092 0.082828 -0.075194
v -0.094536 0.105357 -0.324468
v -0.094989 -0.059796 -0.121536
v -0.094812 -0.275829 -0.200613
v -0.095260 -0.147942 -0.000213
v -0.095707 -0.275829 0.200188
v -0.095531 -0.059796 0.121111
v -0.095984 0.105357 0.324042
v -0.095427 0.082828 0.074769
v -0.095260 0.340943 -0.000213
v 0.095177 -0.016805 -0.009697
v -0.095343 -0.016805 -0.010123
vt 0.626409 0.064409
vt 0.548284 0.007647
vt 0.451716 0.007647
vt 0.373591 0.064409
vt 0.343750 0.156250
vt 0.373591 0.248091
vt 0.451716 0.304853
vt 0.548284 0.304853
vt 0.626409 0.248091
vt 0.656250 0.156250
vt 0.375000 0.312500
vt 0.400000 0.312500
vt 0.425000 0.312500
vt 0.450000 0.312500
vt 0.475000 0.312500
vt 0.500000 0.312500
vt 0.525000 0.312500
vt 0.550000 0.312500
vt 0.575000 0.312500
vt 0.600000 0.312500
vt 0.625000 0.312500
vt 0.375000 0.687500
vt 0.400000 0.687500
vt 0.425000 0.687500
vt 0.450000 0.687500
vt 0.475000 0.687500
vt 0.500000 0.687500
vt 0.525000 0.687500
vt 0.550000 0.687500
vt 0.575000 0.687500
vt 0.600000 0.687500
vt 0.625000 0.687500
vt 0.626409 0.751909
vt 0.548284 0.695147
vt 0.451716 0.695147
vt 0.373591 0.751909
vt 0.343750 0.843750
vt 0.373591 0.935591
vt 0.451716 0.992353
vt 0.548284 0.992353
vt 0.626409 0.935591
vt 0.656250 0.843750
vt 0.500000 0.156250
vt 0.500000 0.843750
vn -0.000201 0.995941 0.090012
vn -0.000201 0.995941 0.090012
vn -0.000201 0.995941 0.090012
vn -0.000201 0.995941 0.090012
vn 0.001410 -0.775608 -0.631213
vn 0.001410 -0.775608 -0.631213
vn 0.001410 -0.775608 -0.631213
vn 0.001410 -0.775608 -0.631213
vn 0.002098 0.343739 -0.939063
vn 0.002098 0.343739 -0.939063
vn 0.002098 0.343739 -0.939063
vn 0.002098 0.343739 -0.939063
vn -0.001202 -0.842978 0.537947
vn -0.001202 -0.842978 0.537947
vn -0.001202 -0.842978 0.537947
vn -0.001202 -0.842978 0.537947
vn 0.001202 -0.842978 -0.537947
vn 0.001202 -0.842978 -0.537947
vn 0.001202 -0.842978 -0.537947
vn 0.001202 -0.842978 -0.537947
vn -0.002098 0.343740 0.939063
vn -0.002098 0.343740 0.939063
vn -0.002098 0.343740 0.939063
vn -0.002098 0.343740 0.939063
vn -0.001410 -0.775608 0.631214
vn -0.001410 -0.775608 0.631214
vn -0.001410 -0.775608 0.631214
vn -0.001410 -0.775608 0.631214
vn 0.000201 0.995941 -0.090012
vn 0.000201 0.995941 -0.090012
vn 0.000201 0.995941 -0.090012
vn 0.000201 0.995941 -0.090012
vn -0.002145 0.278965 0.960299
vn -0.002145 0.278965 0.960299
vn -0.002145 0.278965 0.960299
vn -0.002145 0.278965 0.960299
vn 0.002145 0.278965 -0.960299
vn 0.002145 0.278965 -0.960299
vn 0.002145 0.278965 -0.960299
vn 0.002145 0.278965 -0.960299
vn 0.999997 -0.000046 0.002551
vn 0.999996 -0.000713 0.002760
vn 0.999998 0.000052 0.002219
vn 0.999995 0.000246 0.003083
vn 0.999997 0.000339 0.002326
vn 0.999997 0.000804 0.002252
vn 0.999998 0.000246 0.002037
vn 0.999999 0.000224 0.001505
vn 0.999998 0.000017 0.001912
vn 0.999998 -0.000673 0.001784
vn 0.999998 -0.000292 0.002135
vn -0.999996 0.000713 -0.002760
vn -0.999997 0.000046 -0.002551
vn -0.999998 -0.000052 -0.002219
vn -0.999995 -0.000246 -0.003084
vn -0.999997 -0.000339 -0.002326
vn -0.999997 -0.000804 -0.002252
vn -0.999998 -0.000246 -0.002037
vn -0.999999 -0.000224 -0.001505
vn -0.999998 -0.000017 -0.001912
vn -0.999998 0.000673 -0.001784
vn -0.999998 0.000292 -0.002135
s off
g pasted__pCylinder1 group13
usemtl lambert2SG
f 1/11/1 2/12/2 12/23/3 11/22/4
f 2/12/5 3/13/6 13/24/7 12/23/8
f 3/13/9 4/14/10 14/25/11 13/24/12
f 4/14/13 5/15/14 15/26/15 14/25/16
f 5/15/17 6/16/18 16/27/19 15/26/20
f 6/16/21 7/17/22 17/28/23 16/27/24
f 7/17/25 8/18/26 18/29/27 17/28/28
f 8/18/29 9/19/30 19/30/31 18/29/32
f 9/19/33 10/20/34 20/31/35 19/30/36
f 10/20/37 1/21/38 11/32/39 20/31/40
s 1
f 2/2/41 1/1/42 21/43/43
f 3/3/44 2/2/41 21/43/43
f 4/4/45 3/3/44 21/43/43
f 5/5/46 4/4/45 21/43/43
f 6/6/47 5/5/46 21/43/43
f 7/7/48 6/6/47 21/43/43
f 8/8/49 7/7/48 21/43/43
f 9/9/50 8/8/49 21/43/43
f 10/10/51 9/9/50 21/43/43
f 1/1/42 10/10/51 21/43/43
s 2
f 11/41/52 12/40/53 22/44/54
f 12/40/53 13/39/55 22/44/54
f 13/39/55 14/38/56 22/44/54
f 14/38/56 15/37/57 22/44/54
f 15/37/57 16/36/58 22/44/54
f 16/36/58 17/35/59 22/44/54
f 17/35/59 18/34/60 22/44/54
f 18/34/60 19/33/61 22/44/54
f 19/33/61 20/42/62 22/44/54
f 20/42/62 11/41/52 22/44/54
